<?xml version="1.0" encoding="UTF-8"?>
<svg id="Layer_2" xmlns="http://www.w3.org/2000/svg" width="1000" height="520.2312139" version="1.1" viewBox="0 0 1000 520.2312139">
  <!-- Generator: Adobe Illustrator 30.2.1, SVG Export Plug-In . SVG Version: 2.1.1 Build 1)  -->
  <defs>
    <style>
      .st0 {
        fill: #2e5339;
      }

      .st1 {
        fill: #c8a96e;
      }

      .st2 {
        fill: #f5f0e8;
      }
    </style>
  </defs>
  <g>
    <polygon class="st0" points="188.3178601 223.3721069 188.3178601 296.8591069 251.9594689 333.6026069 315.6010778 296.8591069 315.6010778 223.3721069 251.9594689 186.6286069 188.3178601 223.3721069"/>
    <path class="st1" d="M251.9594689,317.1213085l-.4083872-.2358994-48.9598964-28.2670511v-57.0056018l49.3682835-28.5027511,49.3683832,28.5027511v57.0056018l-49.3683832,28.5029505ZM204.224734,287.6751592l47.7347349,27.5597516,47.7348346-27.5597516v-55.1192042l-47.7348346-27.5597516-47.7347349,27.5597516v55.1192042Z"/>
  </g>
  <g>
    <path class="st2" d="M225.5761681,272.6541812h-3.2758789c-.5722656,0-.8579102-.2734375-.8579102-.8193359v-19.5385742c0-.2856445-.1435547-.4291992-.4291992-.4291992h-4.4458008c-.5458984,0-.8193359-.2729492-.8193359-.8188477v-2.6518555c0-.5463867.2734375-.8193359.8193359-.8193359h14.7416992c.5463867,0,.8193359.2729492.8193359.8193359v2.6518555c0,.5458984-.2729492.8188477-.8193359.8188477h-4.4458008c-.3120117,0-.4677734.1435547-.4677734.4291992v19.5385742c0,.5458984-.2734375.8193359-.8193359.8193359Z"/>
    <path class="st2" d="M249.5610314,272.6541812h-4.1337891c-2.0541992,0-3.640625-.5458984-4.7583008-1.6376953-1.1181641-1.0927734-1.6767578-2.6650391-1.6767578-4.7197266v-12.362793c0-2.0532227.5585938-3.6269531,1.6767578-4.71875,1.1176758-1.0917969,2.7041016-1.6381836,4.7583008-1.6381836h4.1337891c2.0283203,0,3.6010742.5527344,4.7192383,1.6577148,1.1176758,1.1054688,1.6767578,2.6713867,1.6767578,4.6992188v1.1704102c0,.5717773-.2729492.8579102-.8188477.8579102h-3.3149414c-.5458984,0-.8188477-.2861328-.8188477-.8579102v-.9360352c0-.8320312-.1694336-1.4238281-.5073242-1.7749023-.3378906-.3505859-.9233398-.5263672-1.7548828-.5263672h-2.5351562c-.8061523,0-1.3842773.1757812-1.7353516.5263672-.3510742.3510742-.5263672.9428711-.5263672,1.7749023v11.8950195c0,.8320312.175293,1.4228516.5263672,1.7744141.3510742.3505859.9291992.5263672,1.7353516.5263672h2.5351562c.831543,0,1.4169922-.1757812,1.7548828-.5263672.3378906-.3515625.5073242-.9423828.5073242-1.7744141v-2.4570312c0-.2861328-.1435547-.4287109-.4291992-.4287109h-2.3398438c-.5463867,0-.8193359-.2734375-.8193359-.8193359v-2.6523437c0-.5458984.2729492-.8183594.8193359-.8183594h6.824707c.5981445,0,.8969727.2988281.8969727.8964844v6.5126953c0,2.0283203-.559082,3.5947266-1.6767578,4.7001953-1.1181641,1.1054688-2.690918,1.6572266-4.7192383,1.6572266Z"/>
    <path class="st2" d="M281.5800744,247.5770327h5.7719727c.5458984,0,.8188477.2729492.8188477.8193359v23.4384766c0,.5458984-.2729492.8193359-.8188477.8193359h-3.1977539c-.5463867,0-.8193359-.2734375-.8193359-.8193359v-18.4858398h-.1557617l-3.9780273,13.0649414c-.15625.5205078-.4814453.7802734-.9750977.7802734h-3.2758789c-.4941406,0-.8193359-.2597656-.9750977-.7802734l-4.0561523-13.1040039h-.1557617v18.5249023c0,.3125-.0527344.5263672-.15625.6435547-.1040039.1171875-.3251953.1757812-.6630859.1757812h-3.1977539c-.5458984,0-.8188477-.2734375-.8188477-.8193359v-23.4384766c0-.5463867.2729492-.8193359.8188477-.8193359h5.8110352c.3637695,0,.6103516.1821289.7407227.5463867l4.1342773,13.7670898h.2338867l4.1728516-13.7670898c.078125-.3642578.3251953-.5463867.7412109-.5463867Z"/>
  </g>
  <g>
    <path class="st2" d="M403.8407898,262.0272891h-5.4599609c-.9541016,0-1.4301758-.4550781-1.4301758-1.3652344v-32.5649414c0-.4760742-.2387695-.7148438-.7148438-.7148438h-7.4101562c-.9101562,0-1.3652344-.4550781-1.3652344-1.3647461v-4.4204102c0-.909668.4550781-1.3647461,1.3652344-1.3647461h24.5698242c.9101562,0,1.3652344.4550781,1.3652344,1.3647461v4.4204102c0,.909668-.4550781,1.3647461-1.3652344,1.3647461h-7.409668c-.5200195,0-.7802734.2387695-.7802734.7148438v32.5649414c0,.9101562-.4550781,1.3652344-1.3647461,1.3652344Z"/>
    <path class="st2" d="M449.6000671,220.2323672h5.4599609c.9526367,0,1.4301758.4335938,1.4301758,1.2998047v29.9003906c0,3.3798828-.9423828,5.9912109-2.8276367,7.8320312-1.8847656,1.8427734-4.5175781,2.7626953-7.8974609,2.7626953h-7.1499023c-3.4238281,0-6.0673828-.9101562-7.9301758-2.7304688-1.8632812-1.8193359-2.7949219-4.4404297-2.7949219-7.8642578v-29.8354492c0-.909668.4550781-1.3647461,1.3652344-1.3647461h5.5249023c.9101562,0,1.3647461.4550781,1.3647461,1.3647461v29.4448242c0,1.3876953.2924805,2.3730469.8779297,2.9580078.5849609.5849609,1.5488281.8769531,2.8920898.8769531h4.4853516c1.3862305,0,2.3725586-.2919922,2.9575195-.8769531s.8774414-1.5703125.8774414-2.9580078v-29.4448242c0-.909668.4550781-1.3647461,1.3647461-1.3647461Z"/>
    <path class="st2" d="M480.0204773,262.0272891h-5.5253906c-.909668,0-1.3647461-.4550781-1.3647461-1.3652344v-39.0649414c0-.909668.4550781-1.3647461,1.3647461-1.3647461h15.4702148c3.3798828,0,6.0224609.9321289,7.9301758,2.7949219,1.90625,1.8637695,2.8603516,4.4848633,2.8603516,7.8652344v5.0698242c0,4.8974609-1.9291992,8.1474609-5.7856445,9.75v.2597656l6.9555664,14.4956055c.3896484,1.0400391.0214844,1.5595703-1.1054688,1.5595703h-5.2651367c-.7797852,0-1.34375-.0859375-1.6899414-.2597656-.347168-.1728516-.628418-.5419922-.8447266-1.1054688l-6.5-14.0395508h-4.3554688c-.5195312,0-.7797852.2382812-.7797852.7143555v13.3251953c0,.9101562-.4550781,1.3652344-1.3647461,1.3652344ZM482.1000671,239.9921328h6.3701172c1.3862305,0,2.4052734-.2924805,3.0551758-.8774414s.9750977-1.5273438.9750977-2.8276367v-5.0698242c0-1.3427734-.3251953-2.3173828-.9750977-2.9248047-.6499023-.6064453-1.6689453-.9101562-3.0551758-.9101562h-6.3701172c-.4770508,0-.7148438.2387695-.7148438.7148438v11.1801758c0,.4775391.237793.7148438.7148438.7148438Z"/>
    <path class="st2" d="M523.9599304,262.0272891h-5.3945312c-.9101562,0-1.3652344-.4550781-1.3652344-1.3652344v-39.0649414c0-.909668.4550781-1.3647461,1.3652344-1.3647461h4.875c.9101562,0,1.5166016.3037109,1.8203125.9101562l13.1298828,24.6347656h.2597656v-24.1801758c0-.909668.4550781-1.3647461,1.3652344-1.3647461h5.3945312c.9101562,0,1.3652344.4550781,1.3652344,1.3647461v39.0649414c0,.9101562-.4550781,1.3652344-1.3652344,1.3652344h-4.7451172c-.953125,0-1.6474609-.4326172-2.0800781-1.2998047l-13-24.1801758h-.2597656v24.1147461c0,.9101562-.4550781,1.3652344-1.3652344,1.3652344Z"/>
    <path class="st2" d="M570.6298523,262.0272891h-5.5253906c-.9101562,0-1.3652344-.4550781-1.3652344-1.3652344v-39.0649414c0-.909668.4550781-1.3647461,1.3652344-1.3647461h5.5253906c.9091797,0,1.3642578.4550781,1.3642578,1.3647461v18.5253906h.1298828c.3466797-1.0400391,1.0175781-2.3828125,2.015625-4.0302734l9.8798828-14.4951172c.5625-.909668,1.4072266-1.3647461,2.5351562-1.3647461h6.3701172c.4755859,0,.7685547.1411133.8769531.4223633.1074219.2822266-.0107422.6401367-.3574219,1.0727539l-12.3496094,17.0947266,13.7792969,21.5800781c.3027344.5195312.3574219.9208984.1630859,1.2021484-.1953125.2822266-.5966797.4228516-1.203125.4228516h-4.7441406c-1.5175781,0-2.5351562-.4550781-3.0556641-1.3652344l-9.9443359-15.9248047-4.0957031,4.8095703v11.1152344c0,.9101562-.4550781,1.3652344-1.3642578,1.3652344Z"/>
    <path class="st2" d="M631.1445007,262.0272891h-21.2548828c-.9101562,0-1.3652344-.4550781-1.3652344-1.3652344v-39.0649414c0-.909668.4550781-1.3647461,1.3652344-1.3647461h21.2548828c.8662109,0,1.2998047.4550781,1.2998047,1.3647461v4.4204102c0,.909668-.4335938,1.3647461-1.2998047,1.3647461h-13.5849609c-.5195312,0-.7802734.2387695-.7802734.7148438v8.4501953c0,.4775391.2607422.7148438.7802734.7148438h11.1152344c.9101562,0,1.3652344.4550781,1.3652344,1.3652344v4.4199219c0,.9101562-.4550781,1.3647461-1.3652344,1.3647461h-11.1152344c-.5195312,0-.7802734.2387695-.7802734.715332v9.034668c0,.4775391.2607422.7148438.7802734.7148438h13.5849609c.8662109,0,1.2998047.4550781,1.2998047,1.3652344v4.4199219c0,.9101562-.4335938,1.3652344-1.2998047,1.3652344Z"/>
    <path class="st2" d="M663.5136414,262.0272891h-5.5253906c-.9101562,0-1.3652344-.4550781-1.3652344-1.3652344v-13.909668l-11.8945312-25.090332c-.1738281-.3896484-.1621094-.7250977.0322266-1.0073242.1953125-.28125.4873047-.4223633.8779297-.4223633h6.8896484c.6923828,0,1.2128906.4550781,1.5605469,1.3647461l6.5,15.7954102h.4550781l6.3691406-15.7954102c.3027344-.909668.8232422-1.3647461,1.5605469-1.3647461h6.8896484c.4326172,0,.7470703.1298828.9423828.3901367.1953125.2597656.1835938.6069336-.0322266,1.0395508l-11.8945312,25.090332v13.909668c0,.9101562-.4550781,1.3652344-1.3652344,1.3652344Z"/>
  </g>
  <g>
    <path class="st1" d="M394.3911613,300.7684633h-2.9238765c-1.2450465,0-2.2247312-.351531-2.9370956-1.0555723-.7133436-.7040412-1.0697706-1.6881323-1.0697706-2.9512939v-9.3943974c0-1.2631616.356427-2.2472527,1.0697706-2.9503147.7123644-.7040412,1.6920491-1.0565515,2.9370956-1.0565515h2.9238765c1.2455361,0,2.2198352.3574062,2.9238765,1.069281.7040412.7138332,1.0560619,1.6920491,1.0560619,2.9375852v1.1104072c0,.2702578-.1268058.406366-.3789485.406366h-1.2186083c-.2526323,0-.3789485-.1361081-.3789485-.406366v-1.029134c0-1.5696497-.7490842-2.3549641-2.2467631-2.3549641h-2.4636548c-1.498658,0-2.2472527.7853144-2.2472527,2.3549641v9.231851c0,1.5706289.7485946,2.3559433,2.2472527,2.3559433h2.4636548c1.4976788,0,2.2467631-.7853144,2.2467631-2.3559433v-3.0315879c0-.1801719-.0812732-.271237-.2438196-.271237h-2.6800569c-.2531219,0-.3789485-.1175034-.3789485-.351531v-1.0017165c0-.2526323.1258266-.3789485.3789485-.3789485h4.3588868c.3608334,0,.5414949.1889846.5414949.5679331v4.5483611c0,1.2631616-.3520206,2.2472527-1.0560619,2.9512939s-1.6783403,1.0555723-2.9238765,1.0555723Z"/>
    <path class="st1" d="M422.8176836,300.7684633h-8.6903562c-.2531219,0-.3794381-.1263162-.3794381-.3789485v-16.6502328c0-.2516531.1263162-.3789485.3794381-.3789485h1.2181187c.2526323,0,.3789485.1272954.3789485.3789485v14.9983307c0,.1625464.0900859.2438196.2707474.2438196h6.8225416c.2521427,0,.3789485.1351289.3789485.406366v1.0017165c0,.2526323-.1268058.3789485-.3789485.3789485Z"/>
    <path class="st1" d="M444.2855561,300.7684633h-3.2215517c-1.2450465,0-2.2247312-.351531-2.9370956-1.0555723-.7133436-.7040412-1.0697706-1.6881323-1.0697706-2.9512939v-9.3943974c0-1.2631616.356427-2.2472527,1.0697706-2.9503147.7123644-.7040412,1.6920491-1.0565515,2.9370956-1.0565515h3.2215517c1.2455361,0,2.2242416.3574062,2.9375852,1.069281.712854.7138332,1.069281,1.6920491,1.069281,2.9375852v9.3943974c0,1.2455361-.356427,2.2247312-1.069281,2.9375852-.7133436.712854-1.6920491,1.069281-2.9375852,1.069281ZM441.280896,299.0362673h2.7613301c1.515794,0,2.2741805-.7853144,2.2741805-2.3559433v-9.231851c0-1.5696497-.7583866-2.3549641-2.2741805-2.3549641h-2.7613301c-1.498658,0-2.2472527.7853144-2.2472527,2.3549641v9.231851c0,1.5706289.7485946,2.3559433,2.2472527,2.3559433Z"/>
    <path class="st1" d="M463.6697015,300.3895148v-16.6502328c0-.2516531.1263162-.3789485.3794381-.3789485h6.3618303c1.2455361,0,2.2198352.3476142,2.9238765,1.0428427s1.0560619,1.6646316,1.0560619,2.9101677v1.4893557c0,1.6058799-.7583866,2.6438267-2.2741805,3.1128611.6854365.0538557,1.272464.356427,1.7596135.9067346.4871495.5512868.7309691,1.2778496.7309691,2.1796882v1.8134693c0,1.2455361-.356427,2.2159184-1.069281,2.9111469-.7133436.6942493-1.6920491,1.0418635-2.9375852,1.0418635h-6.5513046c-.2531219,0-.3794381-.1263162-.3794381-.3789485ZM465.9169542,291.0763906h4.1694126c1.5877648,0,2.3823816-.7667097,2.3823816-2.3011084v-1.4345208c0-1.5343987-.7676889-2.3011084-2.301598-2.3011084h-4.2501962c-.1806615,0-.2707474.0900859-.2707474.2702578v5.5226601c0,.1625464.0900859.2438196.2707474.2438196ZM465.9169542,299.090123h4.4396704c1.5525138,0,2.3285259-.7667097,2.3285259-2.3011084v-1.7596135c0-1.5343987-.8303574-2.3011084-2.4905826-2.3011084h-4.2776136c-.1806615,0-.2707474.080294-.2707474.2428404v5.8477529c0,.1811511.0900859.271237.2707474.271237Z"/>
    <path class="st1" d="M490.1197185,300.7684633h-1.3537372c-.2350068,0-.3157904-.1263162-.2438196-.3789485l5.0629281-16.6502328c.0719708-.2516531.24333-.3789485.5140774-.3789485h1.9495774c.2707474,0,.441617.1272954.5140774.3789485l5.0629281,16.6502328c.0714812.2526323-.0088128.3789485-.2438196.3789485h-1.380665c-.1987766,0-.3250928-.1263162-.3789485-.3789485l-1.272464-3.9530105h-6.5517942l-1.272464,3.9530105c-.0724604.2526323-.2075894.3789485-.4058764.3789485ZM495.0196106,285.3911841l-2.7882579,9.36698h5.6852065l-2.7882579-9.36698h-.1086907Z"/>
    <path class="st1" d="M524.9619267,300.7684633h-8.6903562c-.2526323,0-.3789485-.1263162-.3789485-.3789485v-16.6502328c0-.2516531.1263162-.3789485.3789485-.3789485h1.2181187c.2526323,0,.3789485.1272954.3789485.3789485v14.9983307c0,.1625464.0910651.2438196.271237.2438196h6.822052c.2526323,0,.3789485.1351289.3789485.406366v1.0017165c0,.2526323-.1263162.3789485-.3789485.3789485Z"/>
    <path class="st1" d="M569.956919,283.3603335h2.1933969c.2516531,0,.3789485.1272954.3789485.3789485v16.6502328c0,.2526323-.1272954.3789485-.3789485.3789485h-1.1916804c-.2526323,0-.3789485-.1263162-.3789485-.3789485v-14.3755627h-.1086907l-4.1958508,10.6125161c-.1086907.2350068-.271237.351531-.4876391.351531h-1.2993918c-.2350068,0-.3877612-.1165242-.4602217-.351531l-4.277124-10.6399335h-.1086907v14.4029801c0,.2526323-.1175034.3789485-.351531.3789485h-1.1916804c-.2526323,0-.3789485-.1263162-.3789485-.3789485v-16.6502328c0-.2516531.1263162-.3789485.3789485-.3789485h2.1933969c.1625464,0,.2702578.0724604.3250928.2173813l4.4396704,11.2078667h.1351289l4.4396704-11.2078667c.0362302-.1449209.1449209-.2173813.3250928-.2173813Z"/>
    <path class="st1" d="M588.3932036,300.7684633h-1.3532476c-.2350068,0-.31628-.1263162-.2438196-.3789485l5.0624385-16.6502328c.0724604-.2516531.2438196-.3789485.5150566-.3789485h1.9485982c.271237,0,.4425962.1272954.5150566.3789485l5.0624385,16.6502328c.0714812.2526323-.009792.3789485-.2438196.3789485h-1.380665c-.1987766,0-.3250928-.1263162-.3789485-.3789485l-1.2729536-3.9530105h-6.550815l-1.2729536,3.9530105c-.0724604.2526323-.2075894.3789485-.406366.3789485ZM593.2940748,285.3911841l-2.7887475,9.36698h5.6852065l-2.7887475-9.36698h-.1077115Z"/>
    <path class="st1" d="M618.4172825,300.7684633h-1.2181187c-.2536115,0-.3789485-.1263162-.3789485-.3789485v-15.0521865c0-.1625464-.0910651-.2438196-.271237-.2438196h-3.6817734c-.2702578,0-.406366-.1263162-.406366-.3789485v-.9752783c0-.2516531.1361081-.3789485.406366-.3789485h9.8820366c.2702578,0,.4053868.1272954.4053868.3789485v.9752783c0,.2526323-.1351289.3789485-.4053868.3789485h-3.6827526c-.1801719,0-.2702578.0812732-.2702578.2438196v15.0521865c0,.2526323-.1263162.3789485-.3789485.3789485Z"/>
    <path class="st1" d="M645.9767275,300.7684633h-8.5013715c-.2526323,0-.3789485-.1263162-.3789485-.3789485v-16.6502328c0-.2516531.1263162-.3789485.3789485-.3789485h8.5013715c.2526323,0,.3789485.1272954.3789485.3789485v.9752783c0,.2526323-.1263162.3789485-.3789485.3789485h-6.6330673c-.1801719,0-.271237.0812732-.271237.2438196v5.4688044c0,.1615672.0910651.2428404.271237.2428404h5.7938972c.2526323,0,.3789485.1272954.3789485.3789485v.9752783c0,.2526323-.1263162.3789485-.3789485.3789485h-5.7938972c-.1801719,0-.271237.0812732-.271237.2438196v5.7664797c0,.1625464.0910651.2438196.271237.2438196h6.6330673c.2526323,0,.3789485.1263162.3789485.3789485v.9742991c0,.2526323-.1263162.3789485-.3789485.3789485Z"/>
    <path class="st1" d="M663.0587853,300.7684633h-1.2181187c-.2526323,0-.3789485-.1263162-.3789485-.3789485v-16.6502328c0-.2516531.1263162-.3789485.3789485-.3789485h6.2267014c1.2455361,0,2.2296272.3574062,2.9512939,1.069281.7216668.7138332,1.0829897,1.6920491,1.0829897,2.9375852v2.4636548c0,1.0115085-.2438196,1.8457827-.7314587,2.504781-.4866599.6589983-1.1642629,1.0957193-2.0298714,1.3131006v.1077115l3.1402786,6.5792116c.1625464.2888625.0714812.4328042-.271237.4328042h-1.2181187c-.3064881,0-.5326821-.1263162-.6766238-.3789485l-3.0315879-6.5517942h-3.574062c-.1801719,0-.271237.0812732-.271237.2438196v6.3079746c0,.2526323-.1263162.3789485-.3789485.3789485ZM663.7089708,292.1867978h4.0881394c1.5520242,0,2.3285259-.7765017,2.3285259-2.3285259v-2.409799c0-1.5696497-.7765017-2.3549641-2.3285259-2.3549641h-4.0881394c-.1801719,0-.271237.0812732-.271237.2438196v6.6056499c0,.1625464.0910651.2438196.271237.2438196Z"/>
    <path class="st1" d="M689.482364,283.739282v16.6502328c0,.2526323-.1263162.3789485-.3789485.3789485h-1.2181187c-.2536115,0-.3799277-.1263162-.3799277-.3789485v-16.6502328c0-.2516531.1263162-.3789485.3799277-.3789485h1.2181187c.2526323,0,.3789485.1272954.3789485.3789485Z"/>
    <path class="st1" d="M705.4814321,300.7684633h-1.3532476c-.2350068,0-.31628-.1263162-.2438196-.3789485l5.0624385-16.6502328c.0724604-.2516531.2438196-.3789485.5150566-.3789485h1.9485982c.271237,0,.4425962.1272954.5150566.3789485l5.0624385,16.6502328c.0714812.2526323-.009792.3789485-.2438196.3789485h-1.380665c-.1987766,0-.3250928-.1263162-.3789485-.3789485l-1.2729536-3.9530105h-6.550815l-1.2729536,3.9530105c-.0724604.2526323-.2075894.3789485-.406366.3789485ZM710.3823034,285.3911841l-2.7887475,9.36698h5.6852065l-2.7887475-9.36698h-.1077115Z"/>
    <path class="st1" d="M740.32413,300.7684633h-8.6903562c-.2526323,0-.3789485-.1263162-.3789485-.3789485v-16.6502328c0-.2516531.1263162-.3789485.3789485-.3789485h1.2181187c.2526323,0,.3789485.1272954.3789485.3789485v14.9983307c0,.1625464.0910651.2438196.271237.2438196h6.822052c.2526323,0,.3789485.1351289.3789485.406366v1.0017165c0,.2526323-.1263162.3789485-.3789485.3789485Z"/>
    <path class="st1" d="M754.6458369,296.7615971v-.8665876c0-.2526323.125337-.3789485.3789485-.3789485h1.2181187c.2526323,0,.3789485.1263162.3789485.3789485v.7040412c0,1.6244846.8029399,2.4372165,2.409799,2.4372165h2.3823816c1.6058799,0,2.4088198-.8303574,2.4088198-2.4910722v-.9204434c0-1.2993918-1.074177-2.1473748-3.2215517-2.544928-.9028178-.1625464-1.8046565-.351531-2.7074743-.5689123-.9018387-.2164021-1.6695276-.6354976-2.3011084-1.2582657s-.9468816-1.475647-.9468816-2.5586367v-1.3268093c0-1.2455361.3554478-2.223752,1.069281-2.9375852.712854-.7118748,1.6920491-1.069281,2.9375852-1.069281h3.0041704c1.2279106,0,2.2022097.3574062,2.9238765,1.069281.7216668.7138332,1.0829897,1.6920491,1.0829897,2.9375852v.6766238c0,.271237-.1175034.406366-.351531.406366h-1.2455361c-.2350068,0-.351531-.1351289-.351531-.406366v-.4866599c0-1.6421101-.8039191-2.4636548-2.409799-2.4636548h-2.3011084c-1.6068591,0-2.409799.8567957-2.409799,2.5713662v1.0829897c0,.9204434.6051425,1.5530034,1.8144484,1.8957216.5414949.1439417,1.1368455.2751538,1.7860518.3926572.6501855.1175034,1.3042878.2702578,1.9632861.4602217.6589983.1889846,1.2592448.4239915,1.8007397.7030621.5414949.2800498.9782159.7040412,1.3121214,1.2729536.3339055.5679331.5013479,1.2582657.5013479,2.0709976v1.2181187c0,1.2455361-.361323,2.2247312-1.0829897,2.9375852s-1.696945,1.069281-2.9238765,1.069281h-3.1128611c-1.2279106,0-2.2022097-.356427-2.9238765-1.069281-.722646-.712854-1.0829897-1.6920491-1.0829897-2.9375852Z"/>
  </g>
</svg>